<svg width="13" height="19" viewBox="0 0 13 19" fill="none" xmlns="http://www.w3.org/2000/svg">
<mask id="path-1-inside-1_201_2" fill="white">
<path fill-rule="evenodd" clip-rule="evenodd" d="M12.2413 1.29458H0.758847V17.1343L6.0328 12.6992H6.12534C6.1583 12.6714 6.1999 12.649 6.24712 12.6336C6.29434 12.6182 6.346 12.6102 6.3983 12.6102C6.4506 12.6102 6.50223 12.6182 6.54945 12.6336C6.59667 12.649 6.63827 12.6714 6.67123 12.6992L9.44701 14.9357L12.2228 17.1723L12.2413 1.29458ZM0.333208 0.781372H12.5744C12.8612 0.781372 13 0.876402 13 1.06014V17.8693C13 18.053 12.8612 18.148 12.5744 18.148C12.5222 18.1468 12.471 18.1377 12.4246 18.1212C12.3781 18.1048 12.3377 18.0815 12.3061 18.053L6.39367 13.3011L0.694072 18.053C0.555284 18.148 0.268439 18.1987 0.12965 18.0973C-0.00913866 17.996 0.000128626 17.9643 0.000128626 17.8693V1.06014C0.000128626 0.876402 0.129651 0.781372 0.333208 0.781372Z"/>
</mask>
<path fill-rule="evenodd" clip-rule="evenodd" d="M12.2413 1.29458H0.758847V17.1343L6.0328 12.6992H6.12534C6.1583 12.6714 6.1999 12.649 6.24712 12.6336C6.29434 12.6182 6.346 12.6102 6.3983 12.6102C6.4506 12.6102 6.50223 12.6182 6.54945 12.6336C6.59667 12.649 6.63827 12.6714 6.67123 12.6992L9.44701 14.9357L12.2228 17.1723L12.2413 1.29458ZM0.333208 0.781372H12.5744C12.8612 0.781372 13 0.876402 13 1.06014V17.8693C13 18.053 12.8612 18.148 12.5744 18.148C12.5222 18.1468 12.471 18.1377 12.4246 18.1212C12.3781 18.1048 12.3377 18.0815 12.3061 18.053L6.39367 13.3011L0.694072 18.053C0.555284 18.148 0.268439 18.1987 0.12965 18.0973C-0.00913866 17.996 0.000128626 17.9643 0.000128626 17.8693V1.06014C0.000128626 0.876402 0.129651 0.781372 0.333208 0.781372Z" fill="#017D4B"/>
<path d="M12.2413 1.29458L13.2413 1.29574L13.2425 0.294577H12.2413V1.29458ZM0.758847 1.29458V0.294577H-0.241153V1.29458H0.758847ZM0.758847 17.1343H-0.241153V19.2818L1.40246 17.8996L0.758847 17.1343ZM6.0328 12.6992V11.6992H5.66822L5.38919 11.9338L6.0328 12.6992ZM6.12534 12.6992V13.6992H6.49071L6.77003 13.4636L6.12534 12.6992ZM6.67123 12.6992L6.02655 13.4636L6.0351 13.4708L6.04382 13.4779L6.67123 12.6992ZM12.2228 17.1723L11.5954 17.951L13.2204 19.2603L13.2228 17.1735L12.2228 17.1723ZM12.5744 18.148L12.5516 19.1478L12.563 19.148H12.5744V18.148ZM12.3061 18.053L12.9758 17.3104L12.9547 17.2914L12.9325 17.2735L12.3061 18.053ZM6.39367 13.3011L7.02013 12.5216L6.38206 12.0088L5.75331 12.533L6.39367 13.3011ZM0.694072 18.053L1.25907 18.8781L1.2981 18.8514L1.33444 18.8211L0.694072 18.053ZM9.44701 14.9357L10.0744 14.1571V14.1571L9.44701 14.9357ZM12.2413 0.294577H0.758847V2.29458H12.2413V0.294577ZM-0.241153 1.29458V17.1343H1.75885V1.29458H-0.241153ZM1.40246 17.8996L6.67642 13.4645L5.38919 11.9338L0.11523 16.3689L1.40246 17.8996ZM6.0328 13.6992H6.12534V11.6992H6.0328V13.6992ZM6.77003 13.4636C6.69075 13.5305 6.61412 13.5657 6.55712 13.5843L5.93712 11.6828C5.78569 11.7322 5.62585 11.8123 5.48065 11.9347L6.77003 13.4636ZM6.55712 13.5843C6.49902 13.6032 6.44564 13.6102 6.3983 13.6102V11.6102C6.24636 11.6102 6.08966 11.6331 5.93712 11.6828L6.55712 13.5843ZM6.3983 13.6102C6.3509 13.6102 6.2975 13.6032 6.23945 13.5843L6.85945 11.6828C6.70696 11.6331 6.55029 11.6102 6.3983 11.6102V13.6102ZM6.23945 13.5843C6.18245 13.5657 6.10582 13.5305 6.02655 13.4636L7.31592 11.9347C7.17072 11.8123 7.01089 11.7322 6.85945 11.6828L6.23945 13.5843ZM13.2228 17.1735L13.2413 1.29574L11.2413 1.29341L11.2228 17.1711L13.2228 17.1735ZM0.333208 1.78137H12.5744V-0.218628H0.333208V1.78137ZM12.5744 1.78137C12.639 1.78137 12.512 1.79782 12.3426 1.68558C12.2444 1.62059 12.1475 1.52165 12.0806 1.38872C12.0157 1.25978 12 1.14082 12 1.06014H14C14 0.673993 13.8298 0.271695 13.4469 0.0181304C13.1364 -0.187564 12.7966 -0.218628 12.5744 -0.218628V1.78137ZM12 1.06014V17.8693H14V1.06014H12ZM12 17.8693C12 17.7886 12.0157 17.6696 12.0806 17.5407C12.1475 17.4078 12.2444 17.3088 12.3426 17.2438C12.512 17.1316 12.639 17.148 12.5744 17.148V19.148C12.7966 19.148 13.1364 19.117 13.4469 18.9113C13.8298 18.6577 14 18.2554 14 17.8693H12ZM12.5972 17.1483C12.6446 17.1494 12.6989 17.1575 12.7584 17.1786L12.0907 19.0639C12.243 19.1178 12.3998 19.1443 12.5516 19.1478L12.5972 17.1483ZM12.7584 17.1786C12.8166 17.1992 12.8955 17.238 12.9758 17.3104L11.6363 18.7956C11.7798 18.925 11.9397 19.0104 12.0907 19.0639L12.7584 17.1786ZM12.9325 17.2735L7.02013 12.5216L5.76721 14.0805L11.6796 18.8324L12.9325 17.2735ZM5.75331 12.533L0.0537092 17.2849L1.33444 18.8211L7.03403 14.0691L5.75331 12.533ZM0.129075 17.2279C0.186363 17.1887 0.22905 17.1729 0.244666 17.1676C0.26367 17.1611 0.281254 17.1572 0.300918 17.155C0.318738 17.153 0.359787 17.15 0.419754 17.1599C0.476136 17.1692 0.592802 17.1973 0.719483 17.2898L-0.460183 18.9049C-0.0914644 19.1742 0.32125 19.1651 0.522804 19.1426C0.752075 19.1171 1.02471 19.0386 1.25907 18.8781L0.129075 17.2279ZM0.719483 17.2898C0.703912 17.2784 0.725284 17.2924 0.759129 17.3264C0.797011 17.3644 0.865226 17.4418 0.920312 17.5608C0.978119 17.6857 0.993724 17.7963 0.998228 17.8584C0.999236 17.8723 0.999642 17.8832 0.999822 17.8899C0.999915 17.8933 0.999957 17.8959 0.999978 17.8976C0.999998 17.8993 1 17.9003 1 17.9004C1 17.9005 0.999999 17.9 1.00001 17.8986C1.00001 17.8971 1.00002 17.8954 1.00004 17.8926C1.00007 17.8876 1.00013 17.8788 1.00013 17.8693H-0.999871C-0.999871 17.8716 -0.999885 17.8741 -0.999922 17.8802C-0.999952 17.885 -1.00001 17.8942 -0.999997 17.9039C-0.999965 17.9224 -0.999715 17.9592 -0.99653 18.0031C-0.989426 18.101 -0.967464 18.2437 -0.894625 18.401C-0.762778 18.6858 -0.538705 18.8475 -0.460183 18.9049L0.719483 17.2898ZM1.00013 17.8693V1.06014H-0.999871V17.8693H1.00013ZM1.00013 1.06014C1.00013 1.22424 0.929625 1.45934 0.718835 1.62966C0.539731 1.77439 0.370616 1.78137 0.333208 1.78137V-0.218628C0.0922433 -0.218628 -0.243411 -0.164128 -0.538166 0.0740457C-0.864606 0.337823 -0.999871 0.712308 -0.999871 1.06014H1.00013ZM6.04382 13.4779L8.81959 15.7144L10.0744 14.1571L7.29865 11.9205L6.04382 13.4779ZM8.81959 15.7144L11.5954 17.951L12.8502 16.3936L10.0744 14.1571L8.81959 15.7144Z" fill="#017D4B" mask="url(#path-1-inside-1_201_2)"/>
<path fill-rule="evenodd" clip-rule="evenodd" d="M6.50286 3.43157C5.83335 3.4346 5.18553 3.67455 4.66963 4.11062C4.15374 4.54669 3.80162 5.15193 3.67318 5.82338C3.54474 6.49483 3.64792 7.19102 3.96517 7.79349C4.28241 8.39597 4.79412 8.86753 5.41324 9.12794C6.03237 9.38836 6.72066 9.42154 7.36103 9.22185C8.0014 9.02216 8.55429 8.60193 8.92563 8.03265C9.29698 7.46338 9.46385 6.78021 9.39785 6.09939C9.33185 5.41856 9.03706 4.78213 8.56363 4.29836C8.29324 4.02097 7.97159 3.80127 7.61738 3.65202C7.26317 3.50277 6.88345 3.42695 6.50031 3.42897L6.50286 3.43157ZM5.9934 7.5651C5.95801 7.56327 5.92295 7.55716 5.88896 7.54689C5.85832 7.5268 5.82936 7.50416 5.80236 7.47921L5.14515 6.81024C5.11734 6.78341 5.0958 6.75053 5.08213 6.71403C5.06846 6.67753 5.06301 6.63835 5.06619 6.5994C5.06416 6.56173 5.07018 6.52406 5.08381 6.48901C5.09745 6.45395 5.11838 6.42234 5.14515 6.39637C5.20177 6.34424 5.27527 6.31539 5.35148 6.31539C5.42769 6.31539 5.5012 6.34424 5.55781 6.39637L5.9934 6.85709L7.46829 5.33956C7.49478 5.3122 7.52663 5.29087 7.56175 5.27697C7.59687 5.26306 7.63446 5.2569 7.67208 5.25886C7.74614 5.25787 7.81758 5.28688 7.87076 5.33956C7.89903 5.36614 7.92105 5.39892 7.93516 5.43544C7.94928 5.47195 7.95513 5.51125 7.95228 5.5504C7.9549 5.58722 7.94887 5.62416 7.93469 5.65811C7.92051 5.69207 7.89859 5.72207 7.87076 5.74562L6.19209 7.4766C6.15879 7.49502 6.12797 7.51777 6.10039 7.54428C6.06133 7.5552 6.02114 7.56132 5.98067 7.56251L5.9934 7.5651ZM6.50286 9.97808C5.69262 9.97875 4.90725 9.69215 4.28071 9.16716C3.65418 8.64217 3.22531 7.91131 3.06725 7.09926C2.90919 6.28722 3.03174 5.44429 3.41399 4.71427C3.79624 3.98425 4.41452 3.41236 5.16335 3.09617C5.91217 2.77997 6.74516 2.73905 7.52022 2.98039C8.29528 3.22173 8.96438 3.73038 9.4134 4.41957C9.86241 5.10876 10.0635 5.93579 9.98242 6.75958C9.90131 7.58338 9.54302 8.3529 8.96865 8.93688C8.64514 9.26801 8.26072 9.53047 7.83754 9.70917C7.41435 9.88786 6.96076 9.97925 6.50286 9.97808Z" fill="#017D4B"/>
</svg>
